<svg xmlns="http://www.w3.org/2000/svg" viewBox="0 0 165.32 287.73"><g id="Layer_2" data-name="Layer 2"><g id="Layer_1-2" data-name="Layer 1"><path d="M76.52,29.67c-1.62-3.32-5.9-2.13-8.83-2.27,1.32-2.29,3.17-4.46,3-7.26-.13-4.93-3.51-10-5.79-14.23A11.16,11.16,0,0,0,50.42,1C44.5,3.82,39.74,9.62,35.78,14.69A187.42,187.42,0,0,0,12.15,62.84C6.39,79.76,1.94,96.74.5,114.63c-1,11.73-.66,23.85,3.29,35a36.51,36.51,0,0,0,8.45,10.45c2.42,2,4.59.67,7.07-.33,6-2.83,10-7.42,14.1-12.43C34,154,31.9,160,31.52,166.59c-.51,7.8-3,15.06-3.66,22.87s-2,15-1.88,22.78c.12,5.11-1.51,9.87-1.54,15-.07,9.18.27,18.37.1,27.56.15,6.42.9,14.37,4.84,19.7,1.22,1.78,3,2.05,4.89,2.79a22.25,22.25,0,0,0,4-9.07c.87-4.42-.23-8.19-.2-12.63.13-11.58.78-23.1,2.06-34.61.59-4.73,1.2-9.44,1.33-14.21.15-6.52,1.77-12.4,3-18.84,2.63-11.25,5.11-22.51,6.94-33.94,1.06-6.1,3.07-11.86,4.4-17.9,3.53-15,8.52-29.68,12.32-44.63,1-6.67,3.21-12.93,5.14-19.36,2.16-8.92,5.31-17.71,6.85-26.72C81.29,39.84,78.89,34.49,76.52,29.67ZM57,54.19c-1.19,5.65-2.89,11-4.54,16.54A180.92,180.92,0,0,1,39.35,104c-3.62,6.47-6.46,13.2-10.71,19.3-2.89,4.42-5.79,8.6-10.33,11.5a95.39,95.39,0,0,1,1.6-31.34c1.4-5.84,3.27-11.55,4.64-17.4C27,75.65,31.48,66.22,35.86,56.52a86.43,86.43,0,0,1,5.36-9.58A105.06,105.06,0,0,1,54.39,29.37c.92-1,2.1-1.25,3.33-1.74,1.42,1.49,2.85,3,4.32,4.41C60.66,39.49,58.58,46.78,57,54.19Z"/><path d="M131.1,23.07c2.83,2.36,4.53,5.73,6.11,9,1.82,3.78,3.41,8.25,3,12.5-.86,2.2-2.22,4.17-2.92,6.46-1.42,4.42-2.16,9-4,13.28a25.38,25.38,0,0,1-6.31-10.7A26.8,26.8,0,0,0,118.67,63c-7.88,13.43-12.42,28.78-15.59,43.93-2.09,10.67-3.11,21.54.41,32a32.67,32.67,0,0,0,5.35-3.92,93.69,93.69,0,0,0,16.48-22.12,65.7,65.7,0,0,0,6.76-15.23c3-10.64,5-21.83,6.88-32.7.81-5.25,3.35-9.59,3.61-14.93a50.31,50.31,0,0,1,5-19.56c1.5-3.71,6.54-5,10.15-4.73,2.24.08,3.18,1.89,4.1,3.64a60.8,60.8,0,0,1,2.92,8.22c1.21,4.42.18,8.52-.95,12.81-2.22,7.93-2.65,15.92-4.53,24-2.66,12.68-5.15,25.37-8.5,37.89-1.54,5.47-2.18,11.13-4,16.49-2.17,6.95-3.63,14.08-5.82,21-1.84,5.77-2.65,11.63-3.95,17.52q-1.87,8.2-3.9,16.35c-2.37,9.08-3.15,18.49-4.8,27.76s-1.81,18.88-2.84,28.36c-.62,5.55-.15,11.13-.78,16.69-.85,7.74-.56,15.82-1.78,23.48-.44,3.21-2.32,5.39-4.37,7.73-1.8-1.6-3.56-2.85-4.37-5.23-2.75-8-3.62-16.91-3.47-25.37.15-8.84-1-17.16-.39-26,1-10.24,1.62-20.49,2.94-30.7.73-6.06,1.86-12.06,2.72-18.1,1.49-9.69,3.55-19,4-28.87-4.61,3.62-9.67,7.73-15.17,9.9a7.64,7.64,0,0,1-6.6-.2,49.28,49.28,0,0,1-6.93-5c-2.53-2-3.71-4.8-4.84-7.73A86.19,86.19,0,0,1,81.91,128c-1.19-12.8.74-26.21,3.27-38.76A197,197,0,0,1,99.33,46.8c2.6-5.23,5.4-10.78,9.16-15.26,3.23-3.89,6.06-7.56,10.75-9.81A11,11,0,0,1,131.1,23.07Z"/></g></g></svg>